<?xml version="1.0" encoding="UTF-8" standalone="no"?>
<!DOCTYPE svg PUBLIC "-//W3C//DTD SVG 1.1//EN" "http://www.w3.org/Graphics/SVG/1.1/DTD/svg11.dtd">
<svg xmlns="http://www.w3.org/2000/svg" version="1.1" viewBox="0.00 0.00 1621.00 751.00">

<defs>

	<filter id="sofGlow" height="300%" width="300%" x="-75%" y="-75%">
		<!-- Thicken out the original shape -->
		<feMorphology operator="dilate" radius="4" in="SourceAlpha" result="thicken" />

		<!-- Use a gaussian blur to create the soft blurriness of the glow -->
		<feGaussianBlur in="thicken" stdDeviation="90" result="blurred" />

		<!-- Change the colour -->
		<feFlood flood-color="#8597ef" result="glowColor" />

		<!-- Color in the glows -->
		<feComposite in="glowColor" in2="blurred" operator="in" result="softGlow_colored" />

		<!--	Layer the effects together -->
		<feMerge>
			<feMergeNode in="softGlow_colored"/>
			<feMergeNode in="SourceGraphic"/>
		</feMerge>

	</filter>

</defs>

<path fill="#ffffff" d="
  M 365.01 268.39
  L 356.98 267.59
  Q 356.45 267.54 356.44 267.01
  C 356.35 263.91 356.70 260.56 356.26 257.57
  Q 354.25 244.12 349.18 236.07
  Q 335.80 214.84 310.24 212.93
  Q 308.79 212.82 309.07 211.39
  Q 309.60 208.74 310.38 206.15
  C 329.28 143.36 346.35 84.68 362.46 24.71
  Q 363.75 19.90 364.85 15.25
  C 366.26 9.34 367.43 3.85 371.81 0.48
  A 1.07 1.07 0.0 0 1 373.05 0.42
  C 376.29 2.46 378.00 6.81 378.91 10.30
  Q 390.40 54.33 402.97 98.00
  Q 417.17 147.34 434.90 207.29
  Q 435.48 209.25 436.07 211.20
  Q 436.58 212.87 434.84 213.00
  C 426.21 213.69 417.94 215.82 410.71 220.72
  C 386.31 237.28 381.88 269.11 399.92 292.21
  Q 400.30 292.70 400.00 293.24
  L 379.12 331.35
  Q 378.80 331.92 378.50 331.35
  Q 369.99 315.12 361.42 298.84
  Q 359.95 296.06 362.45 293.79
  C 364.62 291.81 367.37 291.72 367.44 288.05
  Q 367.57 280.27 367.72 271.42
  A 3.00 3.00 0.0 0 0 365.01 268.39
  Z"
/>
<path fill="#ffffff" d="
  M 264.07 243.71
  Q 261.40 252.87 261.49 263.80
  Q 261.49 264.46 260.83 264.46
  C 237.85 264.70 214.89 264.49 192.00 264.62
  Q 145.49 264.88 112.50 264.73
  C 106.15 264.70 101.43 259.76 96.96 255.91
  Q 75.61 237.51 52.95 218.84
  C 49.70 216.16 46.24 212.87 45.49 208.57
  A 0.84 0.84 0.0 0 1 45.87 207.71
  Q 50.22 205.02 54.75 205.81
  Q 129.05 218.81 210.75 230.82
  Q 236.89 234.66 263.65 238.54
  Q 265.58 238.82 265.28 240.75
  C 265.14 241.61 264.34 242.79 264.07 243.71
  Z"
/>
<path fill="#ffffff" d="
  M 562.74 515.89
  Q 562.91 516.40 563.43 516.40
  Q 591.20 516.40 618.54 516.27
  C 623.12 516.24 627.70 515.75 632.47 515.82
  C 635.95 515.87 636.16 513.44 636.20 510.73
  Q 636.34 500.36 636.13 490.73
  C 636.09 488.69 634.96 486.88 632.76 486.68
  C 630.29 486.45 627.82 485.84 625.75 484.46
  Q 624.73 483.78 624.69 482.56
  L 624.49 475.96
  Q 624.45 474.80 625.32 475.56
  Q 658.15 504.22 692.36 532.18
  C 695.36 534.63 699.39 538.72 699.53 542.73
  A 0.87 0.84 76.3 0 1 699.07 543.51
  Q 694.29 545.97 690.24 545.24
  Q 648.57 537.74 605.50 530.99
  Q 537.24 520.28 483.96 512.84
  Q 481.60 512.51 480.09 511.56
  Q 479.67 511.29 479.84 510.81
  Q 489.66 483.02 472.62 461.65
  C 467.35 455.04 459.11 448.82 451.08 446.38
  Q 445.17 444.57 438.27 444.05
  A 1.00 1.00 0.0 0 1 437.46 443.52
  L 402.59 377.19
  A 2.54 2.54 0.0 0 1 402.61 374.78
  Q 420.77 341.70 439.08 308.32
  C 440.35 306.01 442.91 306.66 444.98 306.13
  C 447.81 305.40 450.71 304.90 453.44 303.71
  Q 468.72 297.09 476.90 283.17
  Q 488.38 263.63 479.87 240.42
  Q 479.39 239.11 480.75 238.82
  Q 483.72 238.19 486.28 237.83
  Q 595.61 222.44 690.48 205.75
  Q 695.23 204.92 699.08 207.73
  Q 699.52 208.05 699.51 208.60
  C 699.44 212.41 695.11 216.37 692.26 218.77
  Q 684.61 225.21 677.12 231.32
  C 664.98 241.24 653.40 251.56 641.40 261.51
  Q 637.68 264.59 633.27 264.70
  C 622.53 264.96 611.10 264.49 600.25 264.50
  Q 571.65 264.50 546.75 264.30
  Q 543.99 264.28 540.76 264.25
  A 1.40 1.36 66.3 0 1 539.85 263.88
  C 537.17 261.34 534.45 257.62 530.31 257.69
  Q 522.91 257.81 515.94 258.94
  C 508.56 260.14 510.75 267.09 512.12 271.91
  Q 518.41 294.01 524.29 308.18
  C 525.79 311.81 529.27 311.56 532.60 311.97
  Q 537.25 312.54 542.01 311.90
  C 543.33 311.72 544.59 311.99 545.89 312.16
  A 0.67 0.66 5.9 0 0 546.63 311.56
  L 547.29 303.78
  Q 547.34 303.15 547.97 303.14
  L 572.90 302.92
  Q 573.47 302.92 573.51 303.49
  Q 574.04 311.62 573.34 318.84
  C 573.13 321.07 569.03 324.42 567.38 325.90
  Q 552.96 338.81 539.36 350.72
  Q 537.11 352.68 534.45 354.50
  A 1.32 1.31 57.2 0 1 532.59 354.09
  C 520.92 334.73 503.58 325.79 481.08 329.15
  C 459.16 332.42 441.11 353.00 441.57 376.10
  C 442.01 398.07 458.20 417.80 480.15 421.69
  Q 509.42 426.88 528.06 403.65
  C 529.78 401.51 531.22 399.02 532.81 396.73
  Q 533.42 395.84 534.33 396.43
  Q 536.42 397.81 538.23 399.38
  Q 553.72 412.84 570.57 427.84
  C 571.77 428.90 572.78 429.79 572.80 431.55
  Q 572.88 438.38 572.59 444.73
  C 572.10 455.49 572.33 466.02 572.10 476.74
  C 572.02 480.04 571.22 485.02 567.40 486.10
  Q 565.52 486.63 563.50 486.84
  A 1.95 1.94 85.9 0 0 561.76 488.85
  Q 562.22 499.43 562.10 511.51
  Q 562.07 513.89 562.74 515.89
  Z"
/>
<path fill="#ffffff" d="
  M 612.00 290.75
  Q 612.00 382.37 612.00 476.44
  C 612.00 479.65 613.11 482.50 612.99 485.72
  C 612.88 488.43 613.85 491.33 615.50 493.48
  Q 616.40 494.64 618.42 495.07
  Q 621.75 495.78 624.74 496.20
  Q 624.99 496.23 624.99 496.49
  L 625.00 503.75
  Q 625.00 504.00 624.75 504.00
  L 574.25 504.01
  Q 572.99 504.01 572.99 502.75
  L 573.01 497.10
  A 1.55 1.55 0.0 0 1 574.43 495.56
  Q 581.17 495.03 583.44 491.94
  Q 584.99 489.83 585.07 486.77
  C 585.14 483.88 585.94 481.05 585.96 478.01
  Q 586.09 451.03 585.93 436.98
  C 585.75 421.57 586.06 407.58 586.02 392.51
  Q 585.89 342.71 585.99 290.67
  A 0.66 0.66 0.0 0 0 585.33 290.01
  Q 567.71 289.99 550.25 290.00
  Q 547.08 290.00 542.55 291.30
  Q 542.00 291.45 542.00 292.02
  L 542.00 301.12
  A 0.87 0.87 0.0 0 1 541.13 301.99
  L 534.23 302.00
  A 1.84 1.83 80.9 0 1 532.47 300.72
  Q 529.36 290.96 526.38 281.75
  Q 524.69 276.55 524.97 271.67
  A 0.78 0.77 1.5 0 1 525.75 270.94
  L 533.00 271.01
  A 1.84 1.82 -9.2 0 1 534.72 272.24
  Q 535.56 274.65 537.27 276.45
  A 1.61 1.60 71.0 0 0 538.27 276.94
  C 540.63 277.18 542.76 277.96 545.20 277.97
  Q 596.94 278.04 646.89 277.95
  Q 653.08 277.94 659.96 276.80
  A 1.83 1.80 -69.5 0 0 660.88 276.37
  Q 662.89 274.61 663.62 271.82
  A 0.94 0.94 0.0 0 1 664.45 271.11
  Q 668.62 270.72 672.21 271.22
  Q 672.83 271.31 672.89 271.94
  Q 673.29 276.14 672.36 279.17
  Q 669.09 289.89 665.26 301.40
  Q 665.07 302.00 664.44 302.00
  L 657.00 302.00
  A 1.00 1.00 0.0 0 1 656.00 301.00
  L 656.00 293.19
  A 2.17 2.17 0.0 0 0 654.41 291.10
  C 652.77 290.65 651.30 290.04 649.55 290.04
  Q 631.35 289.96 612.73 290.01
  Q 612.00 290.01 612.00 290.75
  Z"
/>
<path fill="#ffffff" d="
  M 1544.54 403.59
  Q 1544.36 403.00 1543.73 403.00
  L 1503.47 402.97
  A 1.67 1.66 -81.5 0 0 1501.88 404.15
  L 1475.04 493.27
  Q 1474.87 493.83 1475.31 494.22
  Q 1476.84 495.57 1479.00 495.98
  Q 1480.00 496.17 1480.00 497.18
  L 1480.00 502.87
  Q 1480.00 504.00 1478.88 504.00
  L 1449.25 504.01
  Q 1448.00 504.01 1448.00 502.75
  L 1448.00 497.15
  Q 1448.00 496.17 1448.97 495.98
  C 1452.19 495.34 1455.75 494.31 1457.56 491.41
  Q 1460.75 486.25 1462.52 480.40
  Q 1493.39 377.96 1524.13 276.02
  A 1.49 1.48 8.5 0 1 1525.55 274.97
  L 1533.45 274.96
  A 1.69 1.68 -8.7 0 1 1535.06 276.14
  Q 1566.73 378.45 1598.06 480.50
  Q 1598.90 483.23 1600.51 486.70
  Q 1602.81 491.65 1606.36 493.96
  C 1608.17 495.14 1610.39 495.59 1612.48 496.13
  A 0.70 0.69 7.7 0 1 1613.00 496.80
  L 1612.99 503.50
  Q 1612.99 504.00 1612.50 504.00
  L 1567.97 504.00
  A 1.03 1.03 0.0 0 1 1566.94 502.96
  L 1567.01 496.99
  Q 1567.02 496.33 1567.63 496.10
  L 1570.10 495.16
  A 2.72 2.72 0.0 0 0 1571.72 491.82
  L 1544.54 403.59
  Z
  M 1506.01 390.51
  A 0.42 0.42 0.0 0 0 1506.41 391.06
  L 1540.08 390.94
  A 0.42 0.42 0.0 0 0 1540.48 390.39
  L 1523.45 335.35
  A 0.42 0.42 0.0 0 0 1522.65 335.35
  L 1506.01 390.51
  Z"
/>
<path fill="#ffffff" d="
  M 297.00 495.27
  Q 297.00 496.36 298.05 496.07
  Q 304.89 494.20 308.25 488.00
  Q 334.45 439.60 360.61 391.18
  Q 360.86 390.72 360.61 390.26
  Q 337.76 346.47 314.19 301.43
  Q 313.18 299.48 312.40 297.46
  Q 311.37 294.78 308.98 291.57
  Q 304.81 285.99 299.45 285.93
  A 0.71 0.71 0.0 0 1 298.75 285.22
  L 298.72 278.76
  Q 298.72 278.00 299.49 278.00
  L 346.75 277.99
  Q 348.00 277.99 348.00 279.25
  L 348.00 284.84
  Q 348.00 286.12 346.72 286.18
  Q 345.09 286.25 342.70 287.42
  A 1.31 1.31 0.0 0 0 342.19 289.32
  C 343.01 290.53 343.22 292.00 343.89 293.29
  Q 361.24 326.55 377.62 357.87
  A 0.57 0.57 0.0 0 0 378.63 357.87
  Q 395.96 325.69 412.80 294.55
  C 413.97 292.40 414.83 290.14 415.84 287.94
  A 1.12 1.12 0.0 0 0 415.04 286.37
  L 412.53 285.86
  Q 412.00 285.76 412.00 285.22
  L 412.01 278.80
  A 0.79 0.79 0.0 0 1 412.80 278.01
  L 443.06 278.00
  Q 444.11 278.00 444.09 279.06
  L 443.97 284.96
  Q 443.95 285.95 442.96 285.96
  C 437.92 286.00 434.32 290.22 432.07 294.32
  Q 413.68 327.84 388.10 375.46
  A 2.70 2.69 -44.9 0 0 388.09 377.98
  Q 413.89 427.21 438.96 475.39
  Q 443.39 483.90 447.74 489.89
  Q 451.60 495.20 457.33 496.17
  Q 458.00 496.29 458.00 496.97
  L 458.00 503.25
  Q 458.00 504.00 457.25 504.00
  L 410.00 504.00
  Q 409.00 504.00 409.00 503.00
  L 409.00 497.00
  Q 409.00 495.96 410.04 495.99
  Q 411.97 496.03 413.31 494.36
  A 1.03 1.02 -31.6 0 0 413.51 493.53
  Q 412.89 490.43 411.40 487.57
  Q 391.01 448.42 370.54 409.31
  A 0.46 0.45 -44.6 0 0 369.74 409.31
  L 324.07 493.76
  A 0.81 0.79 33.6 0 0 324.28 494.76
  Q 326.13 496.22 328.15 496.02
  A 0.77 0.76 -3.0 0 1 329.00 496.78
  L 329.00 502.87
  Q 329.00 504.00 327.88 504.00
  L 177.25 504.00
  Q 176.00 504.00 176.00 502.75
  L 176.00 497.22
  A 1.65 1.65 0.0 0 1 177.50 495.58
  Q 186.50 494.76 187.01 488.63
  C 187.21 486.26 187.93 484.15 187.93 481.75
  Q 188.00 394.23 187.97 306.71
  Q 187.97 303.31 187.43 299.84
  Q 186.97 296.85 186.83 293.49
  Q 186.71 290.52 184.85 288.58
  Q 183.57 287.26 180.58 286.67
  Q 178.52 286.26 176.62 285.79
  Q 176.05 285.65 176.04 285.07
  L 175.92 278.68
  A 0.65 0.65 0.0 0 1 176.57 278.01
  L 286.97 277.95
  A 1.03 1.02 -0.0 0 1 288.00 278.97
  L 288.00 313.25
  A 0.75 0.75 0.0 0 1 287.25 314.00
  L 280.45 314.00
  Q 278.72 314.00 278.42 312.30
  Q 277.08 304.87 274.83 297.35
  C 273.89 294.21 272.24 292.15 268.82 291.89
  C 266.96 291.75 265.35 291.03 263.45 291.03
  Q 239.00 290.94 214.26 291.02
  A 0.27 0.26 -90.0 0 0 214.00 291.29
  L 214.00 383.20
  Q 214.00 383.98 214.79 383.98
  Q 233.88 384.05 259.66 383.91
  C 261.97 383.90 263.77 383.16 266.00 382.93
  C 268.77 382.65 269.44 379.65 270.07 377.53
  Q 270.22 377.02 270.75 377.02
  L 277.99 376.93
  A 1.06 1.06 0.0 0 1 279.06 377.99
  L 279.05 401.99
  A 1.04 1.03 0.0 0 1 278.01 403.02
  L 270.72 402.99
  Q 270.17 402.99 269.97 402.47
  L 268.74 399.28
  A 3.63 3.61 84.3 0 0 265.99 397.02
  C 264.08 396.69 262.51 396.00 260.49 396.00
  Q 236.99 396.00 214.62 396.00
  Q 214.00 396.00 214.00 396.61
  Q 213.99 430.51 214.00 462.22
  C 214.01 465.41 215.04 468.45 214.97 471.61
  Q 214.82 478.13 217.14 484.03
  Q 219.52 490.09 225.53 490.81
  C 229.49 491.29 233.39 491.95 237.36 492.03
  Q 249.35 492.25 261.96 491.98
  Q 265.50 491.91 268.95 491.35
  C 272.32 490.81 275.79 491.58 278.86 489.97
  Q 284.27 487.15 285.72 480.88
  Q 286.89 475.82 287.64 470.33
  Q 287.84 468.92 289.26 468.93
  L 295.74 468.97
  Q 297.00 468.98 297.00 470.24
  L 297.00 495.27
  Z"
/>
<path fill="#ffffff" d="
  M 716.02 290.99
  Q 715.00 290.99 715.00 292.00
  L 715.00 383.28
  A 0.68 0.68 0.0 0 0 715.68 383.96
  Q 737.89 384.15 761.62 383.76
  C 763.41 383.74 764.99 383.07 766.73 383.01
  C 769.63 382.90 770.34 379.84 770.95 377.68
  Q 771.13 377.04 771.79 377.02
  L 778.92 376.85
  A 1.07 1.07 0.0 0 1 780.01 377.92
  L 780.00 402.28
  A 0.77 0.76 0.4 0 1 779.22 403.04
  L 771.80 402.98
  Q 771.15 402.97 770.90 402.37
  C 770.07 400.35 769.85 397.43 767.11 397.03
  C 765.18 396.75 763.60 396.00 761.56 396.00
  Q 738.94 395.99 715.60 396.01
  Q 715.01 396.01 715.01 396.59
  Q 714.97 430.10 715.03 461.20
  C 715.04 464.82 715.87 468.28 715.92 471.90
  Q 716.00 477.59 717.79 483.08
  Q 719.98 489.81 726.44 490.80
  C 738.40 492.62 751.12 492.15 763.00 491.91
  C 767.08 491.82 770.99 490.98 774.96 491.04
  C 779.99 491.12 784.28 487.75 785.97 483.15
  C 787.53 478.89 787.84 474.62 788.64 470.17
  Q 788.84 469.01 790.01 468.99
  L 796.56 468.85
  Q 798.04 468.82 798.04 470.31
  L 797.99 503.45
  A 0.57 0.57 0.0 0 1 797.42 504.02
  Q 737.54 503.93 685.92 504.07
  Q 681.78 504.08 677.61 503.75
  A 0.74 0.74 0.0 0 1 676.92 503.00
  L 677.01 496.87
  Q 677.02 496.07 677.80 495.87
  C 682.37 494.72 687.73 494.46 688.07 488.25
  C 688.20 485.81 689.00 483.59 689.00 481.05
  Q 689.02 394.58 688.98 305.64
  C 688.98 301.94 687.94 298.45 687.99 294.72
  C 688.03 291.91 686.76 288.11 683.63 287.22
  Q 680.77 286.41 677.95 285.98
  Q 676.91 285.82 676.93 284.77
  L 677.03 279.14
  A 1.21 1.21 0.0 0 1 678.24 277.95
  L 788.02 278.02
  A 1.00 0.99 90.0 0 1 789.01 279.02
  L 789.00 312.76
  Q 788.99 314.01 787.74 314.01
  L 781.06 314.00
  A 1.65 1.65 0.0 0 1 779.43 312.62
  Q 777.76 302.48 775.02 295.33
  C 774.27 293.37 772.29 292.18 770.27 291.98
  C 768.03 291.75 766.16 290.99 763.86 290.99
  Q 740.05 291.01 716.02 290.99
  Z"
/>
<path fill="#ffffff" d="
  M 844.52 399.00
  A 0.51 0.51 0.0 0 0 844.01 399.52
  Q 844.02 439.59 844.02 478.79
  C 844.02 481.48 844.97 483.96 845.00 486.68
  C 845.03 489.33 846.16 493.39 848.94 494.48
  Q 851.91 495.64 855.69 496.13
  Q 856.00 496.17 856.00 496.48
  L 855.99 503.75
  Q 855.99 504.00 855.74 504.00
  L 806.72 504.00
  A 0.77 0.77 0.0 0 1 805.95 503.22
  L 806.02 496.80
  Q 806.03 496.34 806.46 496.17
  Q 808.47 495.35 810.39 495.13
  C 815.14 494.57 817.21 490.54 817.03 486.22
  C 816.92 483.64 817.75 481.28 817.80 478.63
  Q 817.93 471.13 817.94 464.00
  Q 818.06 384.28 817.98 309.51
  Q 817.97 302.41 816.73 294.00
  C 815.81 287.71 812.12 287.00 807.03 286.05
  Q 806.00 285.86 806.00 284.82
  L 806.00 279.00
  Q 806.00 277.98 807.02 277.99
  Q 839.17 278.09 869.40 277.89
  C 874.42 277.86 880.17 277.78 885.07 278.61
  Q 907.94 282.46 916.65 303.95
  Q 919.24 310.31 919.83 318.16
  Q 920.66 329.11 919.87 339.27
  C 918.39 358.20 907.89 375.85 893.39 387.89
  A 1.02 1.02 0.0 0 0 893.13 389.14
  C 899.29 401.27 905.06 413.70 911.42 425.71
  Q 920.50 442.84 929.46 458.34
  Q 932.47 463.54 935.93 468.61
  C 941.34 476.55 945.47 482.22 952.69 486.68
  Q 957.19 489.45 961.26 489.96
  C 967.62 490.76 973.68 486.28 978.68 482.56
  Q 979.09 482.26 979.61 482.25
  L 985.74 482.25
  A 1.25 1.24 -0.0 0 1 986.99 483.49
  L 987.00 490.46
  Q 987.01 491.14 986.53 491.62
  Q 974.35 504.04 959.07 505.72
  Q 952.96 506.39 943.98 506.14
  Q 937.62 505.95 933.11 504.13
  Q 923.61 500.30 917.15 491.71
  Q 910.89 483.38 905.44 474.04
  C 891.10 449.50 878.63 425.20 866.38 400.03
  A 1.85 1.83 -12.8 0 0 864.72 399.00
  L 844.52 399.00
  Z
  M 872.28 294.85
  Q 866.99 291.99 859.36 290.87
  Q 851.10 289.65 844.62 290.05
  Q 844.00 290.09 844.00 290.71
  L 844.00 385.10
  A 0.80 0.80 0.0 0 0 844.76 385.90
  Q 856.59 386.57 867.23 384.30
  C 880.84 381.40 889.44 370.39 892.68 357.24
  C 896.23 342.83 894.22 328.41 888.26 314.24
  C 884.83 306.07 880.22 299.16 872.28 294.85
  Z"
/>
<path fill="#ffffff" d="
  M 0.00 503.78
  L 0.00 496.29
  Q 5.78 496.17 8.66 492.96
  C 11.89 489.36 11.99 481.46 11.99 476.38
  Q 12.00 391.95 12.00 308.60
  Q 12.00 304.64 11.42 300.74
  Q 10.97 297.69 10.81 293.75
  Q 10.64 289.60 7.82 288.10
  Q 6.34 287.32 3.92 286.81
  Q 1.92 286.38 0.00 285.67
  L 0.00 278.15
  L 49.09 278.05
  Q 50.00 278.05 50.00 278.95
  L 50.00 285.47
  Q 50.00 286.02 49.45 286.06
  C 48.19 286.16 47.25 286.79 46.01 286.94
  Q 39.55 287.73 38.97 293.80
  C 38.76 295.96 38.03 298.18 38.03 300.25
  Q 37.97 340.94 38.01 381.02
  A 0.99 0.98 0.0 0 0 39.00 382.00
  L 122.02 382.00
  A 0.96 0.96 0.0 0 0 122.98 381.04
  Q 123.00 342.84 122.99 309.38
  Q 122.98 305.23 122.49 301.30
  Q 122.04 297.65 121.79 293.85
  C 121.37 287.57 116.98 286.76 112.00 285.99
  Q 111.00 285.83 111.00 284.82
  L 111.00 279.13
  Q 110.99 278.00 112.12 278.00
  L 160.11 277.99
  A 0.97 0.96 -89.7 0 1 161.07 278.97
  L 160.98 285.20
  Q 160.97 285.95 160.23 286.00
  Q 156.89 286.25 154.21 287.31
  Q 150.13 288.91 150.06 293.57
  C 150.00 297.64 149.00 301.50 149.00 305.61
  Q 149.00 390.85 149.00 476.10
  C 149.00 479.93 150.15 483.26 149.98 486.96
  C 149.85 489.79 151.75 493.38 154.27 494.53
  Q 157.12 495.82 160.76 496.09
  Q 160.99 496.10 160.99 496.33
  L 160.99 503.75
  Q 160.99 503.99 160.75 503.99
  L 112.10 504.04
  A 1.17 1.17 0.0 0 1 110.93 502.85
  L 111.01 496.81
  A 0.67 0.66 84.6 0 1 111.53 496.17
  C 114.01 495.61 117.68 495.22 119.47 493.46
  Q 121.62 491.35 121.81 487.98
  Q 122.01 484.44 122.47 480.74
  Q 122.95 476.90 122.96 473.22
  Q 123.04 435.97 122.99 394.74
  Q 122.99 394.00 122.24 394.00
  L 38.28 394.00
  A 0.28 0.28 0.0 0 0 38.00 394.28
  Q 37.99 435.89 38.00 476.68
  C 38.00 480.31 39.12 483.58 38.99 487.15
  C 38.91 489.52 40.31 492.03 41.96 493.61
  C 43.71 495.28 46.95 495.62 49.32 496.12
  Q 50.00 496.26 50.00 496.96
  L 50.01 503.24
  A 0.76 0.75 0.0 0 1 49.25 503.99
  L 0.00 503.78
  Z"
/>
<path fill="#ffffff" d="
  M 1026.28 340.49
  Q 1025.46 343.92 1025.03 348.34
  Q 1018.93 410.93 1012.85 465.18
  Q 1011.80 474.64 1011.12 484.02
  Q 1010.89 487.15 1010.97 490.95
  C 1011.04 494.31 1014.70 495.54 1017.31 496.12
  Q 1018.00 496.27 1018.00 496.97
  L 1018.00 503.00
  Q 1018.00 504.00 1017.00 504.00
  L 985.54 503.99
  A 0.57 0.57 0.0 0 1 984.97 503.42
  L 985.01 496.47
  Q 985.01 496.03 985.46 496.02
  Q 988.39 495.95 991.82 494.59
  Q 992.51 494.32 993.66 492.37
  C 994.92 490.23 995.76 484.31 996.08 481.14
  Q 1008.47 359.97 1013.71 312.60
  Q 1014.98 301.10 1008.94 292.32
  C 1005.99 288.04 1001.82 286.82 997.21 285.78
  Q 997.01 285.74 997.01 285.53
  L 996.99 278.27
  Q 996.99 278.00 997.25 278.00
  L 1034.91 277.97
  A 1.72 1.72 0.0 0 1 1036.54 279.15
  L 1091.38 443.96
  Q 1091.87 445.44 1092.36 443.96
  L 1146.72 279.03
  A 1.58 1.57 -80.7 0 1 1148.21 277.95
  L 1179.28 278.02
  A 0.76 0.75 90.0 0 1 1180.03 278.78
  L 1179.99 285.26
  Q 1179.99 285.83 1179.44 286.00
  Q 1177.75 286.54 1175.99 286.95
  C 1171.47 288.00 1168.43 293.14 1168.09 297.23
  C 1167.60 303.18 1168.17 310.30 1168.86 316.79
  Q 1177.53 398.85 1185.32 475.32
  Q 1186.21 484.05 1188.09 490.24
  C 1189.39 494.49 1192.79 494.78 1196.36 495.92
  Q 1197.00 496.13 1197.00 496.80
  L 1197.00 503.25
  Q 1197.00 504.00 1196.25 504.00
  L 1153.00 504.00
  A 1.00 1.00 0.0 0 1 1152.00 503.00
  L 1152.00 497.05
  Q 1152.00 496.10 1152.94 495.98
  C 1158.07 495.31 1159.51 491.74 1159.01 487.05
  Q 1151.05 412.78 1143.72 339.70
  A 0.13 0.13 0.0 0 0 1143.46 339.67
  L 1089.67 503.09
  Q 1089.37 504.00 1088.41 504.00
  L 1082.05 504.01
  A 1.57 1.57 0.0 0 1 1080.56 502.94
  L 1026.48 340.48
  Q 1026.36 340.12 1026.28 340.49
  Z"
/>
<path fill="#ffffff" d="
  M 1242.98 292.80
  C 1243.11 297.07 1242.00 301.03 1242.00 305.52
  Q 1241.98 391.62 1242.01 477.25
  C 1242.02 480.19 1242.99 483.13 1243.00 486.08
  C 1243.01 487.51 1242.81 488.97 1243.32 490.26
  Q 1244.68 493.72 1247.12 494.65
  Q 1249.84 495.69 1253.43 496.07
  A 0.65 0.64 3.5 0 1 1254.00 496.71
  L 1254.00 503.50
  A 0.50 0.50 0.0 0 1 1253.50 504.00
  L 1204.71 504.00
  A 0.78 0.78 0.0 0 1 1203.93 503.21
  L 1204.02 496.80
  Q 1204.02 496.33 1204.49 496.22
  C 1207.08 495.60 1211.48 495.14 1213.02 493.22
  Q 1214.71 491.11 1214.84 488.27
  Q 1214.98 484.97 1215.34 481.47
  C 1216.03 474.77 1215.86 467.87 1215.88 461.25
  Q 1216.12 386.85 1215.98 309.03
  C 1215.97 305.03 1214.96 301.25 1215.05 297.32
  Q 1215.14 293.47 1213.47 289.73
  C 1212.15 286.80 1207.90 285.83 1205.04 286.00
  A 0.97 0.97 0.0 0 1 1204.01 285.03
  L 1203.99 279.01
  Q 1203.99 278.00 1204.99 278.00
  L 1252.65 278.00
  Q 1254.05 278.00 1254.04 279.40
  L 1253.99 284.57
  Q 1253.97 286.07 1252.48 286.05
  C 1249.04 286.00 1242.84 288.48 1242.98 292.80
  Z"
/>
<path fill="#ffffff" d="
  M 1414.88 443.31
  Q 1415.12 373.31 1414.95 303.06
  C 1414.94 300.14 1414.19 297.64 1414.06 294.81
  C 1413.90 291.62 1412.38 288.47 1409.19 287.36
  Q 1406.59 286.45 1404.07 286.07
  Q 1403.00 285.90 1403.00 284.83
  L 1403.00 279.25
  Q 1403.00 278.00 1404.25 278.00
  L 1440.75 278.00
  Q 1442.00 278.00 1442.00 279.25
  L 1442.00 284.83
  Q 1442.00 286.00 1440.84 286.17
  Q 1438.10 286.57 1435.63 287.40
  Q 1431.35 288.84 1430.39 293.60
  Q 1429.19 299.55 1429.18 307.50
  Q 1429.01 398.73 1428.99 505.66
  Q 1428.99 506.33 1428.33 506.33
  L 1421.97 506.36
  Q 1421.49 506.36 1421.22 505.97
  L 1295.66 330.58
  Q 1295.01 329.66 1295.01 330.79
  Q 1295.00 403.55 1295.00 477.33
  C 1295.00 480.96 1295.91 484.13 1296.03 487.65
  Q 1296.27 494.85 1306.52 495.58
  A 0.31 0.29 87.7 0 1 1306.80 495.85
  Q 1307.20 499.67 1306.91 503.86
  Q 1306.90 504.00 1306.76 504.00
  L 1269.00 504.00
  A 1.00 1.00 0.0 0 1 1268.00 503.00
  L 1268.00 496.96
  Q 1268.00 496.17 1268.78 496.06
  Q 1272.31 495.57 1275.47 494.71
  C 1280.85 493.24 1279.75 485.84 1280.30 481.84
  Q 1281.05 476.36 1281.04 469.96
  Q 1280.94 401.58 1281.03 332.93
  Q 1281.04 327.24 1280.53 321.38
  Q 1280.06 316.03 1279.47 310.17
  Q 1278.79 303.54 1276.58 296.93
  C 1273.73 288.44 1267.09 286.08 1258.94 285.95
  Q 1258.07 285.93 1258.04 285.06
  L 1257.85 278.96
  Q 1257.82 277.99 1258.79 277.99
  L 1295.08 277.97
  A 1.67 1.67 0.0 0 1 1296.43 278.66
  L 1414.39 443.46
  Q 1414.87 444.14 1414.88 443.31
  Z"
/>
<path fill="#ffffff" d="
  M 173.27 298.22
  Q 174.25 298.65 174.31 299.71
  Q 174.90 310.84 174.79 322.69
  Q 174.79 323.24 174.36 322.90
  Q 168.20 317.96 163.34 313.29
  Q 161.67 311.69 161.55 309.33
  Q 161.31 304.53 161.92 299.55
  A 1.77 1.76 79.7 0 1 162.86 298.19
  Q 167.56 295.74 173.27 298.22
  Z"
/>
<path fill="#ffffff" d="
  M 302.01 307.46
  L 346.06 390.67
  Q 346.31 391.14 346.06 391.60
  L 317.44 443.70
  Q 317.15 444.23 316.56 444.18
  Q 312.43 443.88 308.11 444.00
  Q 287.84 444.54 274.13 459.80
  Q 267.24 467.47 263.93 476.74
  A 1.43 1.43 0.0 0 1 262.57 477.69
  Q 252.07 477.62 241.22 477.65
  C 236.52 477.66 230.21 475.39 228.63 470.45
  C 227.63 467.34 226.59 463.89 226.58 460.59
  Q 226.48 435.79 226.54 413.98
  A 0.26 0.26 0.0 0 1 226.94 413.76
  C 250.82 429.64 282.45 423.95 297.11 398.77
  C 308.24 379.66 304.60 356.90 288.72 341.62
  C 271.86 325.39 246.47 324.19 227.21 337.02
  Q 226.64 337.40 226.64 336.71
  L 226.68 303.77
  A 0.47 0.47 0.0 0 1 227.13 303.30
  Q 239.63 302.96 252.48 303.22
  Q 257.26 303.31 259.34 304.37
  C 263.18 306.31 265.01 309.36 265.84 313.53
  Q 266.97 319.28 268.63 324.41
  A 3.16 3.16 0.0 0 0 271.59 326.59
  Q 282.03 326.74 293.52 326.70
  Q 297.13 326.69 300.19 326.05
  Q 302.61 325.53 302.00 323.29
  Q 301.72 322.23 301.76 321.13
  Q 302.00 314.22 301.51 307.61
  Q 301.42 306.35 302.01 307.46
  Z"
/>
<path fill="#ffffff" d="
  M 173.91 428.38
  Q 174.18 428.15 174.22 428.51
  C 174.84 434.87 174.35 441.12 174.33 447.60
  Q 174.30 462.15 174.39 478.92
  C 174.42 485.62 165.36 488.60 162.46 482.30
  Q 161.66 480.57 161.69 478.35
  Q 161.90 461.85 161.84 444.89
  Q 161.83 443.00 161.34 440.93
  Q 161.22 440.44 161.43 439.97
  Q 161.85 439.05 162.61 438.37
  Q 168.28 433.25 173.91 428.38
  Z"
/>
<path fill="#ffffff" d="
  M 368.55 436.27
  Q 368.71 435.95 368.87 435.71
  Q 369.48 434.85 369.97 435.78
  L 390.53 474.70
  A 2.35 2.35 0.0 0 1 390.64 476.65
  Q 389.45 479.65 389.15 483.07
  Q 387.18 505.50 400.51 521.23
  Q 412.39 535.23 430.84 537.51
  Q 433.27 537.81 435.53 538.26
  A 0.82 0.81 12.5 0 1 436.16 539.24
  Q 435.23 543.25 434.03 547.24
  Q 412.56 618.47 394.52 682.75
  Q 386.40 711.70 378.89 740.81
  Q 377.49 746.25 373.77 750.26
  Q 372.90 751.20 371.85 750.45
  C 368.03 747.69 366.84 743.26 365.74 738.99
  C 348.77 673.72 330.66 612.51 309.96 543.26
  Q 309.36 541.23 309.15 539.04
  A 0.93 0.93 0.0 0 1 310.02 538.02
  C 327.57 536.96 342.96 527.51 350.75 512.06
  Q 361.35 491.03 351.57 468.67
  Q 351.32 468.11 351.63 467.58
  Q 360.77 451.84 368.55 436.27
  Z"
/>
<path fill="#ffffff" d="
  M 233.12 516.44
  C 233.44 516.33 233.78 516.38 234.13 516.37
  Q 234.22 516.37 234.13 516.41
  Q 231.56 517.59 228.49 517.75
  Q 225.31 517.92 221.14 518.54
  Q 125.99 532.61 55.90 545.05
  Q 50.32 546.04 45.63 543.36
  A 0.71 0.70 -69.6 0 1 45.29 542.61
  Q 45.90 539.44 47.83 537.25
  C 50.66 534.05 54.11 531.00 57.49 528.25
  Q 77.95 511.59 98.60 493.74
  Q 99.64 492.85 99.55 494.21
  Q 99.15 500.71 98.57 507.96
  Q 98.28 511.59 98.73 514.90
  A 1.53 1.52 -4.8 0 0 100.30 516.22
  Q 111.21 515.83 121.75 515.78
  Q 144.97 515.68 162.26 515.98
  Q 193.75 516.51 227.21 516.27
  C 228.88 516.26 231.60 516.96 233.12 516.44
  Z"
/>
<path fill="#ffffff" d="
  M 1551.43 570.79
  Q 1554.65 571.98 1558.20 572.04
  Q 1558.66 572.05 1558.70 572.51
  L 1558.73 572.81
  Q 1558.76 573.16 1558.40 573.18
  Q 1555.81 573.35 1550.75 573.02
  Q 1545.87 572.70 1536.47 573.29
  A 0.62 0.60 -88.4 0 1 1535.83 572.60
  L 1535.87 572.34
  A 0.27 0.27 0.0 0 1 1536.11 572.10
  Q 1541.75 571.70 1545.57 567.28
  Q 1561.15 549.30 1577.43 530.16
  A 1.90 1.90 0.0 0 1 1580.41 530.26
  Q 1594.04 548.67 1608.23 567.60
  C 1611.06 571.36 1614.75 571.77 1620.28 572.12
  A 0.34 0.34 0.0 0 1 1620.59 572.42
  L 1620.62 572.78
  Q 1620.66 573.31 1620.13 573.29
  Q 1606.57 572.68 1593.36 573.23
  A 0.67 0.66 76.0 0 1 1592.73 572.84
  L 1592.56 572.46
  A 0.29 0.29 0.0 0 1 1592.83 572.05
  Q 1595.61 572.06 1597.40 571.35
  Q 1599.59 570.48 1598.47 568.45
  Q 1595.83 563.71 1591.57 558.44
  Q 1590.41 556.99 1588.63 557.00
  Q 1575.16 557.01 1562.03 557.00
  Q 1559.42 557.00 1557.78 558.80
  Q 1554.62 562.26 1551.29 566.30
  Q 1549.81 568.08 1550.52 569.91
  Q 1550.78 570.55 1551.43 570.79
  Z
  M 1563.10 552.41
  A 0.97 0.97 0.0 0 0 1563.83 554.02
  L 1586.54 553.96
  A 0.97 0.97 0.0 0 0 1587.31 552.41
  L 1576.72 538.52
  A 0.97 0.97 0.0 0 0 1575.22 538.47
  L 1563.10 552.41
  Z"
/>
<path fill="#ffffff" d="
  M 1084.24 554.84
  Q 1084.23 560.90 1084.27 567.61
  C 1084.29 569.87 1086.00 570.60 1087.90 570.74
  Q 1100.22 571.69 1113.36 569.75
  Q 1120.15 568.76 1125.33 565.06
  A 1.06 1.06 0.0 0 1 1126.94 565.56
  Q 1127.11 566.03 1126.90 566.50
  Q 1126.30 567.78 1125.25 568.64
  Q 1118.48 574.14 1109.25 573.75
  Q 1101.42 573.42 1094.07 573.13
  Q 1081.48 572.64 1068.16 573.57
  Q 1067.57 573.61 1067.44 573.03
  L 1067.37 572.73
  Q 1067.31 572.45 1067.59 572.42
  Q 1070.64 572.12 1072.71 571.42
  C 1074.31 570.88 1075.26 569.13 1075.26 567.47
  Q 1075.28 546.95 1075.20 537.40
  C 1075.15 531.54 1069.20 531.24 1065.01 531.47
  Q 1064.82 531.48 1064.75 531.31
  L 1064.63 531.01
  A 0.58 0.58 0.0 0 1 1065.20 530.22
  Q 1082.14 531.20 1099.68 530.97
  Q 1109.65 530.84 1119.73 530.49
  A 0.93 0.93 0.0 0 1 1120.67 531.66
  Q 1120.00 534.16 1119.57 537.26
  Q 1119.27 539.37 1117.14 538.98
  Q 1116.68 538.89 1116.62 538.43
  L 1116.45 536.97
  A 3.17 3.16 -80.3 0 0 1114.70 534.49
  Q 1112.44 533.38 1109.84 533.27
  Q 1098.78 532.77 1086.35 533.12
  A 2.17 2.16 89.2 0 0 1084.25 535.29
  L 1084.25 549.23
  A 1.18 1.17 1.3 0 0 1085.38 550.40
  Q 1096.55 550.87 1107.55 550.04
  Q 1110.94 549.79 1111.97 546.86
  Q 1112.28 545.98 1113.21 546.00
  L 1113.68 546.01
  Q 1115.02 546.03 1114.75 547.34
  Q 1113.74 552.23 1114.72 557.09
  A 0.75 0.75 0.0 0 1 1113.99 557.99
  L 1113.12 558.00
  A 1.24 1.24 0.0 0 1 1111.93 557.16
  C 1110.60 553.28 1107.26 553.01 1103.64 553.00
  Q 1094.65 552.97 1086.01 553.05
  Q 1084.25 553.07 1084.24 554.84
  Z"
/>
<path fill="#ffffff" d="
  M 1314.99 531.99
  C 1321.53 533.32 1328.48 536.00 1333.63 540.36
  C 1339.93 545.69 1340.79 554.18 1335.69 560.71
  C 1329.40 568.76 1316.59 572.25 1306.48 573.27
  Q 1294.04 574.53 1281.85 572.64
  Q 1272.21 571.15 1264.22 566.66
  C 1254.67 561.30 1250.77 550.70 1258.98 541.91
  C 1264.34 536.17 1272.38 533.41 1280.04 531.93
  Q 1297.86 528.49 1314.99 531.99
  Z
  M 1330.6006 554.4670
  A 33.72 19.86 4.4 0 0 1298.5036 532.0785
  A 33.72 19.86 4.4 0 0 1263.3594 549.2930
  A 33.72 19.86 4.4 0 0 1295.4564 571.6815
  A 33.72 19.86 4.4 0 0 1330.6006 554.4670
  Z"
/>
<path fill="#ffffff" d="
  M 1430.47 551.49
  C 1427.96 551.76 1424.25 552.25 1424.48 555.62
  C 1424.73 559.37 1424.47 563.30 1424.55 567.05
  Q 1424.56 567.69 1423.92 567.72
  C 1422.24 567.80 1420.24 568.13 1418.68 568.68
  Q 1398.29 575.89 1376.80 572.90
  C 1367.72 571.64 1354.16 567.39 1350.26 558.43
  C 1346.27 549.28 1352.15 541.52 1360.05 537.17
  Q 1369.76 531.82 1381.97 530.69
  Q 1400.44 528.97 1418.87 534.12
  Q 1419.41 534.27 1419.93 534.08
  L 1422.06 533.31
  A 1.01 1.01 0.0 0 1 1423.41 534.15
  Q 1423.89 538.56 1425.42 542.72
  Q 1425.71 543.52 1424.88 543.68
  L 1424.31 543.79
  A 1.05 1.01 61.1 0 1 1423.40 543.51
  C 1412.97 533.29 1393.65 530.96 1380.12 532.86
  C 1370.35 534.24 1357.54 540.26 1358.55 552.27
  C 1359.47 563.20 1372.32 569.22 1382.15 570.90
  C 1392.36 572.64 1404.49 572.24 1413.49 566.73
  C 1414.88 565.88 1415.49 564.21 1415.49 562.69
  Q 1415.48 559.36 1415.53 555.31
  C 1415.56 553.37 1414.26 552.38 1412.44 552.16
  Q 1408.82 551.73 1405.76 551.61
  A 0.42 0.42 0.0 0 1 1405.36 551.17
  L 1405.38 550.83
  Q 1405.39 550.51 1405.71 550.51
  L 1430.19 550.50
  Q 1430.62 550.50 1430.65 550.93
  L 1430.66 551.26
  Q 1430.67 551.47 1430.47 551.49
  Z"
/>
<path fill="#ffffff" d="
  M 735.17 571.00
  A 3.59 3.59 0.0 0 0 737.22 567.77
  Q 737.28 551.77 737.23 537.94
  C 737.21 532.51 731.35 531.91 727.21 531.92
  A 0.34 0.34 0.0 0 1 726.87 531.61
  L 726.84 531.26
  A 0.49 0.49 0.0 0 1 727.35 530.73
  Q 738.66 531.32 751.52 530.67
  Q 762.96 530.09 774.33 531.23
  C 782.70 532.08 790.97 533.88 797.89 538.14
  C 806.54 543.46 809.65 552.47 802.70 560.99
  C 794.27 571.32 773.70 573.71 761.41 573.30
  Q 751.13 572.96 751.06 572.96
  Q 740.53 572.97 730.24 573.27
  A 0.71 0.71 0.0 0 1 729.52 572.70
  L 729.46 572.39
  A 0.26 0.26 0.0 0 1 729.71 572.07
  Q 733.05 572.00 735.17 571.00
  Z
  M 789.15 566.50
  C 797.47 562.25 800.09 553.23 794.80 545.40
  C 785.95 532.33 763.41 531.42 749.46 533.04
  Q 747.60 533.25 746.57 534.59
  Q 746.25 534.99 746.25 535.51
  L 746.25 566.97
  A 2.44 2.44 0.0 0 0 748.20 569.36
  Q 765.73 572.96 780.20 569.71
  Q 784.96 568.64 789.15 566.50
  Z"
/>
<path fill="#ffffff" d="
  M 1168.14 572.10
  C 1171.49 571.98 1175.76 571.54 1175.75 567.22
  Q 1175.70 552.69 1175.80 538.41
  C 1175.84 532.59 1170.30 531.90 1165.88 531.96
  A 0.39 0.38 2.7 0 1 1165.49 531.54
  L 1165.51 531.25
  A 0.53 0.53 0.0 0 1 1166.06 530.76
  C 1173.71 531.06 1180.14 531.11 1188.94 530.67
  Q 1204.03 529.91 1217.51 531.84
  C 1226.42 533.12 1239.72 537.02 1243.69 545.76
  C 1247.25 553.61 1242.99 561.06 1236.26 565.33
  C 1225.87 571.90 1211.36 573.72 1198.92 573.23
  Q 1187.56 572.78 1176.20 573.10
  Q 1170.60 573.26 1168.27 573.19
  Q 1167.84 573.18 1167.85 572.75
  L 1167.85 572.40
  A 0.31 0.31 0.0 0 1 1168.14 572.10
  Z
  M 1221.96 536.58
  C 1211.54 532.39 1200.11 531.92 1188.83 532.88
  Q 1186.37 533.09 1185.12 534.51
  A 1.53 1.50 -25.1 0 0 1184.75 535.50
  L 1184.75 567.27
  Q 1184.75 567.81 1185.12 568.21
  Q 1186.12 569.32 1187.58 569.60
  Q 1204.22 572.73 1217.87 569.89
  C 1227.86 567.81 1238.12 562.45 1235.60 550.53
  C 1234.26 544.16 1227.87 538.96 1221.96 536.58
  Z"
/>
<path fill="#ffffff" d="
  M 1455.24 544.23
  Q 1453.80 556.62 1453.67 565.64
  Q 1453.57 571.89 1464.11 572.03
  Q 1464.57 572.04 1464.41 572.47
  L 1464.30 572.78
  Q 1464.09 573.36 1463.47 573.33
  Q 1449.18 572.65 1439.85 573.32
  A 0.68 0.67 85.3 0 1 1439.13 572.70
  L 1439.11 572.38
  Q 1439.09 572.15 1439.31 572.13
  C 1443.59 571.74 1447.83 570.86 1448.36 565.63
  Q 1449.31 556.16 1450.19 545.94
  C 1451.04 536.11 1446.33 532.09 1436.87 531.91
  A 0.31 0.31 0.0 0 1 1436.61 531.44
  L 1436.93 530.90
  A 0.29 0.28 -72.4 0 1 1437.19 530.76
  Q 1443.01 531.28 1451.55 530.78
  Q 1454.59 530.60 1456.63 532.95
  Q 1471.34 549.89 1484.80 564.92
  Q 1485.40 565.59 1485.99 564.92
  Q 1500.38 548.76 1515.76 531.55
  C 1516.76 530.43 1517.81 530.31 1519.26 530.62
  C 1522.93 531.38 1526.92 530.94 1530.56 530.71
  A 0.55 0.55 0.0 0 1 1531.14 531.20
  L 1531.17 531.46
  Q 1531.21 531.80 1530.89 531.85
  C 1528.66 532.25 1525.61 532.13 1523.95 533.77
  Q 1522.06 535.65 1522.21 538.74
  Q 1522.94 553.82 1524.10 568.56
  Q 1524.14 569.05 1524.45 569.43
  Q 1526.10 571.49 1529.12 571.72
  Q 1531.79 571.92 1534.46 572.42
  A 0.28 0.28 0.0 0 1 1534.47 572.96
  C 1531.48 573.64 1528.01 572.98 1525.75 572.98
  Q 1517.04 572.99 1508.23 573.35
  A 0.69 0.68 -7.7 0 1 1507.54 572.83
  L 1507.46 572.54
  A 0.30 0.30 0.0 0 1 1507.70 572.17
  C 1511.47 571.52 1514.89 571.20 1514.56 566.28
  Q 1513.71 553.69 1512.80 542.53
  A 0.29 0.29 0.0 0 0 1512.31 542.35
  C 1510.44 544.22 1508.38 545.90 1506.55 547.88
  Q 1495.91 559.42 1485.58 571.27
  Q 1483.02 574.21 1480.41 571.30
  L 1455.94 544.01
  Q 1455.35 543.34 1455.24 544.23
  Z"
/>
<path fill="#ffffff" d="
  M 835.60 565.63
  C 835.72 572.09 843.07 571.84 847.47 572.28
  Q 847.69 572.30 847.66 572.53
  L 847.63 572.80
  A 0.58 0.57 -85.0 0 1 847.04 573.30
  Q 831.69 572.63 825.25 573.03
  Q 820.34 573.33 818.24 573.22
  A 0.66 0.66 0.0 0 1 817.62 572.62
  L 817.59 572.36
  Q 817.57 572.13 817.80 572.12
  C 821.66 571.88 826.47 571.97 826.49 566.56
  Q 826.52 551.74 826.48 538.01
  Q 826.47 533.43 821.91 532.59
  Q 818.94 532.04 816.10 531.77
  Q 815.96 531.76 815.93 531.62
  L 815.83 531.25
  A 0.43 0.42 83.6 0 1 816.26 530.71
  Q 829.77 531.34 843.66 530.71
  A 0.65 0.65 0.0 0 1 844.32 531.17
  L 844.42 531.47
  Q 844.47 531.63 844.31 531.67
  C 839.78 532.79 835.60 532.67 835.54 538.89
  Q 835.39 553.65 835.60 565.63
  Z"
/>
<path fill="#ffffff" d="
  M 869.19 533.69
  Q 869.57 535.64 871.17 537.58
  Q 882.84 551.71 894.59 565.93
  A 1.47 1.47 0.0 0 0 896.86 565.92
  Q 904.47 556.54 913.85 544.51
  Q 917.56 539.75 919.55 535.13
  Q 920.57 532.77 917.75 532.35
  Q 914.99 531.94 912.38 531.70
  Q 912.10 531.67 912.11 531.39
  L 912.12 531.11
  A 0.29 0.29 0.0 0 1 912.41 530.83
  L 933.67 531.07
  Q 933.85 531.07 933.86 531.25
  L 933.88 531.53
  Q 933.91 532.01 933.44 532.08
  Q 928.71 532.79 926.01 536.09
  Q 912.44 552.66 895.04 573.80
  A 2.45 2.45 0.0 0 1 891.25 573.80
  Q 875.48 554.61 860.39 536.27
  C 857.40 532.64 853.64 532.03 848.86 531.98
  A 0.39 0.38 -86.7 0 1 848.48 531.55
  L 848.52 531.19
  Q 848.57 530.73 849.03 530.75
  Q 860.85 531.32 873.09 530.74
  Q 873.68 530.71 873.76 531.29
  L 873.80 531.55
  A 0.18 0.18 0.0 0 1 873.67 531.75
  L 869.77 532.77
  A 0.80 0.80 0.0 0 0 869.19 533.69
  Z"
/>
<path fill="#ffffff" d="
  M 955.81 565.09
  C 955.87 571.38 961.64 572.14 967.35 572.08
  Q 967.77 572.08 967.76 572.50
  L 967.75 572.79
  A 0.48 0.48 0.0 0 1 967.25 573.25
  Q 951.24 572.67 938.64 573.32
  Q 938.08 573.35 937.92 572.82
  L 937.82 572.48
  A 0.28 0.28 0.0 0 1 938.06 572.13
  C 941.89 571.86 946.71 571.99 946.73 566.60
  Q 946.78 551.39 946.72 537.88
  Q 946.71 536.18 945.80 534.64
  C 944.48 532.40 939.22 531.99 936.88 531.96
  Q 936.28 531.96 936.29 531.35
  L 936.30 531.08
  A 0.39 0.39 0.0 0 1 936.71 530.70
  Q 949.28 531.35 963.79 530.70
  Q 964.24 530.68 964.51 531.04
  Q 964.91 531.57 964.27 531.73
  C 961.22 532.48 957.73 532.31 956.45 535.80
  Q 955.76 537.68 955.75 539.70
  Q 955.70 553.03 955.81 565.09
  Z"
/>
<path fill="#ffffff" d="
  M 1041.82 564.29
  A 0.60 0.60 0.0 0 0 1042.45 563.70
  Q 1042.64 552.60 1042.41 544.40
  Q 1042.31 540.75 1041.68 537.08
  C 1040.85 532.24 1032.79 532.30 1029.12 531.81
  Q 1028.75 531.76 1028.87 531.40
  L 1028.96 531.16
  A 0.72 0.72 0.0 0 1 1029.68 530.68
  Q 1041.52 531.34 1053.40 530.73
  Q 1053.97 530.70 1054.11 531.25
  L 1054.18 531.52
  Q 1054.27 531.85 1053.93 531.88
  Q 1050.16 532.26 1049.29 532.82
  Q 1047.06 534.24 1047.05 536.91
  Q 1046.95 553.83 1047.02 571.57
  A 2.03 2.03 0.0 0 1 1043.94 573.32
  L 992.31 542.39
  A 1.19 1.19 0.0 0 0 990.51 543.41
  Q 990.47 554.79 990.52 567.14
  C 990.53 571.84 996.36 572.01 999.93 572.00
  A 0.61 0.60 86.4 0 1 1000.54 572.54
  L 1000.57 572.79
  Q 1000.62 573.19 1000.22 573.21
  Q 997.82 573.33 992.75 573.02
  Q 987.29 572.68 976.48 573.30
  Q 975.88 573.34 975.65 572.78
  L 975.54 572.50
  A 0.23 0.23 0.0 0 1 975.72 572.19
  Q 985.76 571.14 985.77 565.75
  Q 985.79 555.89 985.73 545.29
  Q 985.70 540.86 984.85 538.85
  C 982.78 533.93 977.31 532.06 972.21 531.92
  Q 971.61 531.90 971.62 531.30
  L 971.63 531.00
  Q 971.63 530.72 971.90 530.73
  Q 975.23 530.81 978.19 530.96
  C 980.81 531.09 983.57 530.09 986.10 531.58
  Q 1010.77 546.17 1040.51 563.88
  Q 1041.13 564.25 1041.82 564.29
  Z"
/>

</svg>
