<?xml version="1.0" encoding="UTF-8" standalone="no"?>
<!DOCTYPE svg PUBLIC "-//W3C//DTD SVG 1.1//EN" "http://www.w3.org/Graphics/SVG/1.1/DTD/svg11.dtd">
<svg xmlns="http://www.w3.org/2000/svg" version="1.1" viewBox="0.00 0.00 397.00 453.00">
<path fill="#ffffff" d="
  M 397.00 125.87
  Q 397.00 126.06 397.00 126.24
  C 395.17 131.03 392.83 132.02 389.05 135.22
  Q 370.64 150.83 352.12 166.32
  C 351.28 167.03 350.23 167.10 349.35 167.85
  C 341.23 174.76 333.47 181.92 325.62 189.12
  Q 315.29 198.60 304.70 207.79
  Q 304.61 207.87 304.56 207.96
  Q 304.51 208.08 304.45 208.20
  Q 304.31 208.54 304.02 208.76
  C 301.12 210.96 297.47 215.35 294.80 214.98
  A 1.04 1.04 0.0 0 1 293.97 214.30
  Q 293.21 212.04 291.54 210.39
  Q 291.14 209.99 290.98 209.46
  Q 290.80 208.83 290.62 208.64
  Q 280.36 197.97 266.86 199.15
  C 254.55 200.23 245.37 208.12 241.89 219.92
  C 241.48 221.30 241.75 222.91 240.81 224.38
  Q 240.48 224.90 240.83 225.40
  Q 241.95 226.98 240.74 228.49
  A 0.71 0.71 0.0 0 0 240.80 229.44
  C 241.94 230.54 241.40 232.00 241.68 233.04
  Q 245.37 246.56 257.91 252.56
  Q 258.89 253.03 260.80 253.47
  C 264.95 254.41 268.63 255.11 273.79 254.46
  C 275.19 254.29 276.06 253.73 277.46 253.40
  C 282.27 252.28 286.73 249.10 290.10 245.57
  C 290.95 244.67 290.97 243.64 292.09 242.84
  Q 292.58 242.49 292.83 241.94
  L 293.97 239.45
  Q 294.20 238.96 294.72 238.84
  Q 296.56 238.41 297.85 239.65
  Q 301.24 242.90 303.81 245.06
  Q 305.26 246.28 306.69 247.54
  Q 315.86 255.63 325.02 263.72
  C 326.61 265.14 327.72 266.92 329.19 268.22
  Q 339.52 277.40 350.12 286.31
  Q 350.50 286.63 351.00 286.69
  C 352.29 286.85 352.75 287.95 353.49 288.57
  Q 369.78 302.23 386.17 315.77
  Q 388.02 317.31 389.64 319.19
  A 1.91 1.85 -9.8 0 0 390.46 319.75
  Q 391.14 319.99 391.64 320.47
  C 394.21 322.88 396.10 323.81 397.00 327.64
  L 397.00 328.51
  L 392.37 330.08
  Q 391.90 330.24 391.42 330.15
  Q 383.47 328.67 375.48 327.39
  Q 375.14 327.33 373.19 326.68
  C 371.42 326.09 369.73 327.12 368.01 325.85
  A 1.52 1.49 -23.7 0 0 367.27 325.57
  L 360.47 325.00
  Q 360.24 324.98 360.11 324.80
  Q 359.91 324.53 359.74 324.51
  Q 350.79 323.46 341.94 321.68
  C 340.12 321.31 338.05 321.33 336.11 320.92
  C 329.58 319.55 322.84 319.01 316.25 317.67
  C 314.60 317.33 312.45 317.91 311.06 316.99
  A 1.68 1.64 -26.5 0 0 310.22 316.72
  C 306.06 316.52 301.21 315.54 297.91 315.13
  C 291.35 314.30 284.79 312.98 278.33 312.22
  Q 270.93 311.36 263.37 310.09
  A 1.52 1.52 0.0 0 1 262.23 307.97
  Q 265.68 300.23 263.95 291.00
  Q 263.85 290.43 263.43 289.57
  C 262.86 288.39 262.82 287.00 262.31 285.95
  C 260.32 281.79 257.49 277.91 253.77 275.12
  Q 252.42 274.11 251.11 273.03
  C 249.40 271.62 247.73 271.11 245.76 270.24
  C 244.90 269.86 244.45 270.34 243.55 270.05
  Q 238.44 268.41 233.07 268.73
  C 231.04 268.86 227.52 269.58 225.78 270.40
  Q 218.70 273.76 215.44 277.74
  Q 210.56 283.70 209.78 290.02
  Q 209.58 291.68 209.13 292.42
  Q 208.89 292.80 208.89 293.25
  L 208.83 297.79
  Q 208.82 298.28 209.11 298.68
  Q 210.09 300.03 209.75 301.72
  Q 209.65 302.24 209.99 302.64
  C 210.63 303.37 210.49 304.22 210.71 304.86
  C 214.60 315.97 224.85 324.54 237.06 324.28
  A 0.69 0.68 -8.9 0 1 237.73 324.76
  Q 238.25 326.40 237.12 327.67
  A 1.02 1.01 60.8 0 0 236.88 328.53
  Q 237.07 329.58 236.38 330.38
  A 1.61 1.51 -20.7 0 0 236.05 331.05
  C 235.48 333.90 234.67 337.22 233.62 340.03
  C 232.56 342.84 232.08 345.71 230.94 348.51
  C 230.38 349.88 230.47 351.93 229.75 353.05
  A 0.47 0.39 73.7 0 0 229.68 353.21
  L 222.33 378.23
  Q 222.24 378.54 222.05 378.81
  Q 221.83 379.11 221.78 379.50
  C 221.44 382.05 220.43 384.49 219.90 386.85
  Q 219.31 389.41 218.30 391.83
  C 217.77 393.10 217.78 394.41 217.37 395.70
  Q 216.57 398.19 216.49 398.52
  C 215.63 402.08 214.30 405.78 213.47 409.03
  C 211.41 417.04 209.07 425.00 206.92 432.99
  Q 206.54 434.42 206.22 435.07
  Q 206.01 435.51 206.06 435.99
  C 206.17 437.14 205.43 437.88 205.22 438.65
  C 204.73 440.37 204.69 441.93 204.09 443.72
  C 202.90 447.28 203.36 450.16 199.89 453.00
  L 197.01 453.00
  C 194.28 450.72 193.68 448.21 193.27 444.68
  C 193.13 443.44 192.33 443.26 192.26 441.85
  Q 192.14 439.41 191.08 437.21
  Q 190.86 436.76 190.90 436.26
  C 190.98 435.30 190.28 434.38 190.11 433.70
  Q 187.20 422.08 185.20 415.52
  C 184.62 413.64 184.36 411.92 183.73 410.20
  C 183.06 408.36 182.94 406.48 182.24 404.66
  Q 180.97 401.43 180.37 397.99
  Q 180.30 397.53 180.04 397.14
  C 179.14 395.75 179.21 393.33 178.65 391.71
  Q 176.56 385.70 175.10 379.51
  Q 174.99 379.06 174.69 378.72
  Q 174.47 378.47 174.43 378.25
  C 173.69 374.26 172.17 370.58 171.28 366.59
  Q 171.17 366.09 170.85 365.68
  Q 170.43 365.14 170.45 364.45
  Q 170.47 363.97 170.33 363.51
  L 167.21 353.30
  Q 167.13 353.02 166.97 352.76
  Q 166.77 352.42 166.75 352.01
  C 166.61 349.69 165.45 347.45 164.99 345.65
  C 164.34 343.04 163.32 340.51 162.78 337.89
  C 162.45 336.31 161.59 335.09 161.32 333.63
  Q 161.09 332.43 160.88 331.22
  Q 160.80 330.69 160.45 330.28
  Q 159.88 329.58 160.04 328.66
  Q 160.13 328.14 159.80 327.73
  Q 158.72 326.45 159.12 324.79
  A 0.64 0.63 -82.6 0 1 159.75 324.30
  Q 166.33 324.36 172.09 321.33
  C 179.24 317.58 185.52 310.29 186.94 302.13
  C 187.43 299.28 188.49 296.37 187.95 293.07
  Q 187.87 292.59 187.62 292.16
  Q 187.28 291.55 187.12 290.26
  C 186.16 282.49 181.21 275.80 174.35 272.03
  Q 165.70 267.29 155.36 269.39
  C 154.35 269.59 153.43 270.35 152.14 270.15
  Q 151.65 270.07 151.19 270.26
  C 147.28 271.84 143.41 274.29 140.48 277.42
  Q 127.95 290.79 134.75 308.30
  A 1.28 1.27 -15.8 0 1 133.79 310.01
  C 124.78 311.69 115.73 312.33 106.75 314.02
  C 102.76 314.76 98.19 315.19 93.26 316.01
  C 90.72 316.43 87.70 316.28 85.31 317.18
  C 83.83 317.74 81.44 317.54 80.25 317.77
  Q 69.97 319.79 63.26 320.37
  Q 62.03 320.47 61.33 320.77
  A 1.42 0.19 -26.1 0 1 60.43 321.07
  Q 56.81 321.30 53.25 321.99
  Q 45.35 323.55 37.35 324.52
  Q 37.10 324.55 36.92 324.72
  Q 36.82 324.82 36.71 324.90
  Q 36.53 325.03 36.25 325.04
  Q 32.87 325.21 29.50 325.63
  Q 29.01 325.69 28.63 326.00
  C 27.41 326.98 25.18 326.31 23.70 326.72
  Q 21.27 327.41 21.21 327.42
  Q 13.30 328.70 5.42 330.16
  Q 4.94 330.25 4.48 330.08
  L 0.00 328.46
  L 0.00 327.22
  Q 1.05 323.69 3.97 321.54
  Q 6.25 319.85 6.33 319.79
  Q 24.90 304.17 43.46 288.51
  C 44.19 287.90 44.61 286.81 45.91 286.70
  Q 46.43 286.65 46.82 286.31
  Q 57.73 277.03 68.53 267.62
  C 69.71 266.59 70.08 265.23 71.36 264.12
  Q 81.76 255.17 91.85 245.88
  Q 94.50 243.43 97.41 241.27
  C 98.84 240.21 99.56 238.38 102.08 238.80
  Q 102.63 238.89 102.88 239.40
  L 104.31 242.28
  Q 104.53 242.74 104.99 242.97
  Q 105.75 243.35 105.88 244.14
  Q 105.96 244.64 106.30 245.01
  C 109.55 248.58 114.57 252.44 119.40 253.36
  Q 120.59 253.58 121.63 254.19
  Q 122.06 254.44 122.56 254.43
  C 124.68 254.41 126.36 254.98 128.48 254.67
  C 130.07 254.44 132.98 254.83 134.14 253.86
  Q 134.53 253.54 135.03 253.55
  C 137.52 253.60 139.59 252.12 141.48 251.46
  Q 141.94 251.30 142.28 250.94
  C 143.32 249.80 145.04 248.85 145.77 248.23
  Q 153.11 242.02 155.32 232.56
  C 155.57 231.50 154.94 230.56 156.17 229.43
  A 0.68 0.67 48.4 0 0 156.22 228.49
  Q 154.86 226.93 156.18 225.25
  A 0.83 0.81 43.3 0 0 156.14 224.19
  L 155.47 223.46
  Q 155.22 223.18 155.29 222.82
  Q 155.33 222.61 155.39 222.42
  Q 155.50 221.97 155.42 221.57
  C 153.40 212.27 146.75 204.11 137.74 200.67
  C 136.36 200.14 134.98 200.51 133.55 199.57
  Q 133.13 199.30 132.64 199.31
  C 129.98 199.35 127.62 198.68 125.09 199.07
  C 117.41 200.23 111.61 202.80 106.26 208.86
  A 0.28 0.10 -70.7 0 0 106.22 208.91
  L 102.47 214.67
  Q 102.21 215.08 101.72 215.05
  Q 100.20 214.95 98.54 213.50
  Q 91.65 207.51 84.76 201.50
  Q 77.73 195.37 70.85 189.09
  Q 70.47 188.75 70.01 188.09
  Q 69.63 187.54 69.16 187.11
  Q 58.70 177.41 47.86 168.12
  C 46.78 167.20 45.51 166.92 44.48 166.06
  Q 26.16 150.68 7.88 135.25
  C 4.39 132.31 1.60 131.06 0.00 126.38
  L 0.00 125.20
  L 4.67 123.59
  A 1.13 1.11 -49.9 0 1 5.20 123.54
  Q 9.75 124.22 14.26 125.13
  C 16.17 125.52 19.33 125.77 21.79 126.40
  C 24.75 127.15 27.67 127.29 30.65 128.05
  C 32.30 128.46 34.29 128.32 36.09 128.78
  Q 37.75 129.21 38.23 129.28
  Q 44.18 130.26 42.56 129.68
  A 0.08 0.08 0.0 0 1 42.61 129.52
  Q 50.75 131.59 60.81 132.75
  C 61.72 132.86 62.74 133.35 64.00 133.46
  Q 69.55 133.93 77.45 135.48
  C 78.29 135.64 79.77 135.49 80.88 136.09
  Q 81.33 136.33 81.83 136.27
  Q 83.88 136.03 85.81 136.64
  Q 86.27 136.79 86.74 136.86
  L 130.06 143.20
  Q 130.41 143.25 130.71 143.44
  Q 131.20 143.76 131.96 143.59
  Q 133.94 143.14 134.72 144.69
  Q 134.95 145.14 134.75 145.61
  Q 129.72 157.91 134.95 168.51
  Q 138.42 175.55 143.06 178.69
  C 145.97 180.66 148.28 183.03 151.82 183.66
  C 154.28 184.10 156.73 184.84 159.01 185.05
  C 168.58 185.90 177.54 182.08 182.97 174.16
  Q 186.25 169.37 187.08 163.99
  Q 187.37 162.07 187.79 161.27
  Q 188.03 160.80 188.03 160.26
  L 188.03 155.75
  A 1.26 1.23 -64.1 0 0 187.78 155.00
  C 186.84 153.70 187.25 152.58 186.93 151.39
  C 183.71 139.26 173.06 128.87 159.64 129.50
  A 0.59 0.58 84.5 0 1 159.04 129.00
  Q 158.77 127.29 159.81 125.96
  A 1.19 1.18 58.1 0 0 160.04 124.97
  Q 159.84 124.07 160.46 123.45
  Q 160.84 123.06 160.93 122.52
  Q 161.11 121.28 161.32 120.13
  C 161.59 118.62 162.51 117.35 162.81 115.70
  C 163.26 113.27 164.30 110.94 164.88 108.51
  C 165.38 106.44 166.61 104.07 166.73 101.49
  Q 166.75 101.01 167.08 100.71
  Q 167.44 100.38 167.54 99.91
  Q 168.12 97.06 169.02 94.31
  Q 170.34 90.25 170.80 88.63
  Q 171.60 85.75 172.53 82.91
  Q 173.50 79.99 174.14 77.01
  C 174.53 75.21 175.60 73.28 175.71 70.98
  Q 175.74 70.33 176.20 69.73
  A 2.04 1.95 70.4 0 0 176.60 68.84
  Q 177.27 65.34 178.57 62.02
  C 179.30 60.17 179.35 58.30 180.09 56.40
  Q 180.79 54.61 180.95 52.65
  Q 180.99 52.11 181.34 51.69
  Q 181.91 51.00 181.88 50.06
  Q 181.86 49.55 182.11 49.10
  C 183.18 47.15 183.11 45.10 183.91 43.07
  Q 184.67 41.13 184.74 38.99
  Q 184.75 38.69 185.00 38.42
  Q 185.32 38.06 185.44 37.60
  L 188.93 24.64
  A 0.50 0.45 -18.7 0 1 189.06 24.41
  Q 189.29 24.18 189.33 24.00
  Q 189.69 22.00 190.07 20.00
  Q 190.17 19.49 190.46 19.06
  Q 190.96 18.32 190.89 17.44
  Q 190.84 16.94 191.06 16.50
  Q 192.16 14.25 192.28 11.72
  Q 192.30 11.23 192.52 10.78
  C 193.63 8.53 193.47 5.99 194.37 4.10
  Q 195.38 2.00 197.02 0.76
  A 2.40 2.39 -43.6 0 1 200.00 0.83
  C 202.87 3.21 203.28 6.07 203.75 9.55
  Q 203.81 9.99 204.13 10.30
  L 204.37 10.53
  Q 204.53 10.68 204.54 10.89
  Q 204.66 13.05 205.24 15.14
  C 205.50 16.06 206.24 16.60 206.05 17.88
  Q 205.98 18.39 206.28 18.80
  L 206.61 19.25
  Q 206.91 19.67 206.95 20.19
  Q 207.07 22.16 207.74 23.98
  C 208.55 26.15 208.58 28.30 209.62 30.36
  Q 209.86 30.82 209.78 31.34
  Q 209.66 32.12 210.11 32.71
  Q 210.43 33.12 210.51 33.63
  Q 210.85 35.86 211.64 37.94
  C 212.32 39.73 212.43 41.60 213.11 43.38
  C 213.83 45.26 213.74 47.26 214.78 49.09
  Q 215.02 49.52 215.01 50.01
  C 214.98 51.03 215.63 51.61 215.84 52.45
  Q 216.69 55.86 217.58 59.25
  C 218.26 61.87 219.78 65.70 220.35 69.15
  Q 220.41 69.53 220.68 69.80
  Q 220.78 69.89 220.89 69.98
  Q 220.91 70.00 220.92 70.03
  Q 222.41 76.57 224.39 82.97
  Q 225.52 86.65 226.60 90.35
  C 227.24 92.54 228.77 96.53 229.33 99.84
  Q 229.41 100.32 229.76 100.65
  Q 230.11 100.99 230.14 101.49
  C 230.28 104.02 231.55 106.45 232.04 108.54
  C 232.66 111.15 233.74 113.59 234.29 116.21
  C 234.73 118.32 235.87 119.92 235.94 122.27
  Q 235.95 122.81 236.30 123.22
  Q 237.02 124.07 236.90 125.15
  Q 236.85 125.63 237.15 126.02
  Q 238.17 127.32 237.79 128.90
  Q 237.65 129.46 237.08 129.45
  C 223.92 129.32 213.70 138.50 210.14 150.88
  Q 209.70 152.42 209.77 153.40
  Q 209.80 153.88 209.56 154.29
  C 208.44 156.12 208.85 158.44 208.85 160.51
  A 1.33 1.32 25.2 0 0 209.16 161.36
  C 210.12 162.51 209.67 163.71 209.98 164.87
  Q 211.51 170.62 213.19 172.99
  Q 224.58 189.02 244.50 183.75
  Q 248.11 182.80 249.94 181.41
  Q 251.74 180.05 253.59 178.73
  C 264.15 171.20 266.83 157.30 262.37 145.67
  A 1.66 1.66 0.0 0 1 264.54 143.53
  Q 265.51 143.92 266.44 143.28
  Q 266.86 143.00 267.37 142.94
  C 277.69 141.81 287.86 140.03 298.14 138.66
  Q 305.21 137.72 311.52 136.39
  A 7.18 6.88 38.1 0 1 312.92 136.25
  C 316.68 136.28 322.11 134.65 326.78 134.41
  A 0.75 0.73 -68.7 0 0 327.29 134.18
  Q 327.58 133.89 328.00 133.88
  Q 332.77 133.76 334.00 133.33
  C 336.57 132.44 339.76 132.38 341.81 132.01
  Q 350.04 130.53 358.32 129.31
  Q 358.43 129.29 361.28 128.68
  C 362.83 128.35 364.40 128.53 365.87 128.14
  Q 368.64 127.42 371.49 127.04
  Q 373.34 126.79 375.92 126.21
  Q 378.13 125.71 380.39 125.58
  C 381.58 125.51 382.73 124.79 383.74 124.78
  C 386.46 124.77 390.57 122.91 392.97 123.77
  Q 395.58 124.71 397.00 125.87
  Z
  M 213.75 227.12
  A 15.40 15.40 0.0 0 0 198.35 211.72
  A 15.40 15.40 0.0 0 0 182.95 227.12
  A 15.40 15.40 0.0 0 0 198.35 242.52
  A 15.40 15.40 0.0 0 0 213.75 227.12
  Z"
/>
</svg>
